# xmcd
#
# Track frame offsets: 
#        150
#        12355
#        24755
#        39922
#        54348
#        67209
#        79409
#        94056
#        108133
#        120337
#        134827
#        149605
#        162651
#        175308
#        188545
#        201918
#        212303
#        224119
#        238369
#        252500
#
# Disc length: 3590 seconds
#
# Revision: 2
# Processed by: cddbd v1.5.2PL0 Copyright (c) Steve Scherf et al.
# Submitted via: ExactAudioCopyFreeDBPlugin 1.0
#
DISCID=2b0e0414
DTITLE=Various Artist - Goin' Mad Blues
DYEAR=2006
DGENRE=Blues
TTITLE0=Big Joe Turner - I Got My Discharge Papers
TTITLE1=Brownie McGhee - Cool Miner Blues
TTITLE2=Memphis Slim - Beer Drinking Woman
TTITLE3=Leadbelly - Easy Rider
TTITLE4=Ma Rainey - Rough And Tumble Blues
TTITLE5=Kokomo Arnold - Set Down Gal
TTITLE6=Hot Lips Page - My Fightin' Gal
TTITLE7=Arthur "Big Boy" Crudup - My Mamma Don't Allow Me
TTITLE8=Sleepy John Estes - Easin' Back To Tennessee
TTITLE9=Bessie Smith - Yodling Blues
TTITLE10=T-Bone Walker - T-Bone Blues
TTITLE11=Big Bill Broonzy - Too Too Train Blues
TTITLE12=Lightnin' Hopkins - Fast Mail Rambler
TTITLE13=Blind Willie McTell - Warm It Up To Me
TTITLE14=Jimmy Yancey - Steady Rock Blues
TTITLE15=Robert Johnson - Honemoon Blues
TTITLE16=Blind Boy Fuller and Sonny Terry - Stop Jivin' Me Mama
TTITLE17=Blind John Davis - After Hours
TTITLE18=Big Joe Williams - Stepfather Blues
TTITLE19=John Lee Hooker - Goin' Mad Blues
EXTD=
EXTT0=
EXTT1=
EXTT2=
EXTT3=
EXTT4=
EXTT5=
EXTT6=
EXTT7=
EXTT8=
EXTT9=
EXTT10=
EXTT11=
EXTT12=
EXTT13=
EXTT14=
EXTT15=
EXTT16=
EXTT17=
EXTT18=
EXTT19=
PLAYORDER=
